<?xml version="1.0" encoding="UTF-8" standalone="no"?>
<!-- Created with Inkscape (http://www.inkscape.org/) -->

<svg
   version="1.1"
   id="svg2"
   width="216.97333"
   height="159.25333"
   viewBox="0 0 216.97333 159.25333"
   sodipodi:docname="LOGO_RL_RGB.eps"
   xmlns:inkscape="http://www.inkscape.org/namespaces/inkscape"
   xmlns:sodipodi="http://sodipodi.sourceforge.net/DTD/sodipodi-0.dtd"
   xmlns="http://www.w3.org/2000/svg"
   xmlns:svg="http://www.w3.org/2000/svg">
  <defs
     id="defs6" />
  <sodipodi:namedview
     id="namedview4"
     pagecolor="#ffffff"
     bordercolor="#000000"
     borderopacity="0.25"
     inkscape:showpageshadow="2"
     inkscape:pageopacity="0.0"
     inkscape:pagecheckerboard="0"
     inkscape:deskcolor="#d1d1d1" />
  <g
     id="g8"
     inkscape:groupmode="layer"
     inkscape:label="ink_ext_XXXXXX"
     transform="matrix(1.3333333,0,0,-1.3333333,0,159.25333)">
    <g
       id="g10"
       transform="scale(0.1)">
      <path
         d="m 1535.86,1103.36 c -5.1,50.66 -31.81,98.43 -97.02,90.06 L 182.961,1012.41 C 127.449,1000.97 97.1992,973.391 85.9844,922.371 L 1.0625,329.395 C -6.92578,278.398 30.5547,247.988 98.0547,243.234 L 222.598,236.379 130.438,0 517.383,219.277 1529.8,160.68 c 52.86,-1.86 102.88,42.726 96.98,90.043 l -90.92,852.637"
         style="fill:#bbce31;fill-opacity:1;fill-rule:nonzero;stroke:none"
         id="path12" />
      <path
         d="m 134.004,355.078 v 87.324 c 0,39.192 -6.875,53.977 -6.875,61.203 0,5.836 2.742,9.278 18.215,9.278 13.758,0 16.504,-1.367 18.914,-10.317 l 4.133,-15.816 c 8.933,19.598 23.718,28.543 41.929,28.543 6.196,0 13.071,-1.043 15.481,-2.07 5.156,-1.707 7.558,-4.817 7.558,-18.567 0,-14.429 -4.464,-16.148 -7.558,-16.148 -2.754,0 -9.285,1.375 -18.223,1.375 -23.723,0 -33.699,-20.633 -33.699,-59.824 v -64.981 c 0,-10.312 -4.453,-11.687 -19.934,-11.687 -15.129,0 -19.941,1.375 -19.941,11.687"
         style="fill:#014b66;fill-opacity:1;fill-rule:nonzero;stroke:none"
         id="path14" />
      <path
         d="m 365.039,408.02 v 9.285 l -29.91,-1.028 c -21.66,-0.691 -27.16,-5.504 -27.16,-22 0,-19.257 6.179,-22.343 20.285,-22.343 18.902,0 36.785,10.644 36.785,36.086 z m -95.234,-17.872 c 0,35.75 15.808,50.879 65.324,50.879 h 29.91 v 17.188 c 0,22.351 -7.226,24.07 -28.191,24.07 -25.102,0 -42.637,-5.508 -49.844,-5.508 -4.824,0 -7.231,4.473 -7.231,15.821 0,11.687 2.407,14.785 8.594,16.843 10.996,3.442 33.012,6.887 53.637,6.887 42.281,0 62.566,-6.887 62.566,-48.144 v -54.305 c 0,-39.543 6.883,-53.984 6.883,-61.203 0,-6.192 -2.754,-9.285 -18.223,-9.285 -13.75,0 -16.5,1.375 -18.914,10.32 l -5.156,19.25 c -9.289,-22.695 -29.558,-33.012 -55.012,-33.012 -30.253,0 -44.343,14.106 -44.343,50.199"
         style="fill:#014b66;fill-opacity:1;fill-rule:nonzero;stroke:none"
         id="path16" />
      <path
         d="m 573.379,418.691 v 18.555 c 0,35.754 -6.184,45.383 -32.996,45.383 -25.449,0 -31.985,-6.535 -31.985,-56.731 0,-45.371 5.165,-52.597 29.571,-52.597 24.402,0 35.41,7.566 35.41,45.39 z m -105.547,6.868 c 0,76.668 19.602,90.769 62.922,90.769 21.309,0 34.715,-5.168 41.934,-19.258 v 60.157 c 0,9.98 4.812,11.359 19.949,11.359 15.461,0 19.929,-1.379 19.929,-11.359 V 413.879 c 0,-39.543 7.231,-53.984 7.231,-61.203 0,-6.192 -2.754,-9.285 -18.567,-9.285 -13.757,0 -16.164,1.375 -18.562,10.32 l -4.477,16.152 c -7.91,-19.597 -24.414,-29.914 -53.289,-29.914 -45.382,0 -57.07,17.539 -57.07,85.61"
         style="fill:#014b66;fill-opacity:1;fill-rule:nonzero;stroke:none"
         id="path18" />
      <path
         d="m 677.219,355.078 v 202.149 c 0,9.98 4.461,11.359 19.937,11.359 15.117,0 19.934,-1.379 19.934,-11.359 V 355.078 c 0,-10.312 -4.817,-11.687 -19.934,-11.687 -15.476,0 -19.937,1.375 -19.937,11.687"
         style="fill:#014b66;fill-opacity:1;fill-rule:nonzero;stroke:none"
         id="path20" />
      <path
         d="m 880.051,427.285 c 0,48.469 -4.477,55.344 -29.571,55.344 -27.5,0 -32.316,-8.598 -32.316,-52.949 0,-48.469 4.465,-56.379 29.563,-56.379 27.515,0 32.324,9.621 32.324,53.984 z m -102.453,-0.351 c 0,73.222 20.632,89.394 74.265,89.394 51.907,0 68.75,-13.762 68.75,-85.957 0,-73.574 -20.281,-90.422 -74.258,-90.422 -51.914,0 -68.757,14.785 -68.757,86.985"
         style="fill:#014b66;fill-opacity:1;fill-rule:nonzero;stroke:none"
         id="path22" />
      <path
         d="m 1083.24,427.285 c 0,48.469 -4.47,55.344 -27.51,55.344 -27.84,0 -35.76,-12.719 -35.76,-55.695 V 388.43 c 0,-10.317 3.45,-15.129 29.91,-15.129 27.51,0 33.36,9.621 33.36,53.984 z M 980.781,382.234 v 174.993 c 0,9.98 4.473,11.359 19.939,11.359 15.13,0 19.94,-1.379 19.94,-11.359 v -66.348 c 8.6,16.164 24.76,25.449 49.17,25.449 41.95,0 53.97,-13.762 53.97,-85.957 0,-74.949 -19.6,-90.422 -76.32,-90.422 -54.667,0 -66.699,15.129 -66.699,42.285"
         style="fill:#014b66;fill-opacity:1;fill-rule:nonzero;stroke:none"
         id="path24" />
      <path
         d="m 1286.42,427.285 c 0,48.469 -4.47,55.344 -27.5,55.344 -27.86,0 -35.76,-12.719 -35.76,-55.695 V 388.43 c 0,-10.317 3.44,-15.129 29.91,-15.129 27.51,0 33.35,9.621 33.35,53.984 z m -102.46,-45.051 v 174.993 c 0,9.98 4.48,11.359 19.96,11.359 15.12,0 19.94,-1.379 19.94,-11.359 v -66.348 c 8.59,16.164 24.74,25.449 49.16,25.449 41.93,0 53.97,-13.762 53.97,-85.957 0,-74.949 -19.6,-90.422 -76.33,-90.422 -54.65,0 -66.7,15.129 -66.7,42.285"
         style="fill:#014b66;fill-opacity:1;fill-rule:nonzero;stroke:none"
         id="path26" />
      <path
         d="m 1396.79,512.883 c 16.14,0 19.59,-1.723 21.65,-10.317 l 29.57,-125.828 h 3.78 l 30.93,125.828 c 2.07,8.594 5.51,10.317 21.32,10.317 18.23,0 21.32,-3.442 21.32,-9.961 0,-3.106 -0.69,-8.945 -5.51,-25.109 l -42.97,-146.454 c -12.04,-41.601 -20.97,-55.351 -57.41,-55.351 -12.38,0 -25.45,2.066 -33.35,4.805 -6.19,2.078 -9.28,4.812 -9.28,16.511 0,12.031 2.41,16.153 7.21,16.153 4.13,0 13.76,-3.094 30.95,-3.094 17.87,0 21.32,4.129 25.1,18.57 l 3.44,14.438 c -20.29,0 -25.1,4.812 -28.88,18.218 l -32.32,111.743 c -6.19,20.964 -6.19,26.121 -6.19,29.214 0,6.196 2.06,10.317 20.64,10.317"
         style="fill:#014b66;fill-opacity:1;fill-rule:nonzero;stroke:none"
         id="path28" />
      <path
         d="m 1003.45,803.469 -98.606,125.097 167.736,34.532 c 0,0 18.96,-1.836 19.17,-15.727 z m -52.72,-13.965 c -16.074,34.062 -47.683,61.187 -87.402,75.215 8.059,20.359 15.578,38.047 20.317,48.316 l 92.246,-117.058 c -8.332,-2.2 -16.75,-4.356 -25.161,-6.473 z M 803.293,632.246 c -72.109,-1.57 -131.582,46.875 -132.91,108.234 -1.32,61.493 56.094,112.45 128.125,114.083 11.133,0.234 21.902,-0.84 32.262,-2.852 -12.872,-36.074 -25.243,-72.734 -34.754,-102.426 -1.922,-5.894 3.093,-13.941 12.336,-12.535 53.394,8.191 85.679,12.938 122.339,18.965 0.372,-3.106 0.704,-6.223 0.762,-9.399 1.328,-61.382 -56.055,-112.5 -128.16,-114.07 z m 52.242,212.363 c 31.153,-12.058 55.664,-34.25 67.707,-61.828 -29.414,-6.961 -57.058,-12.754 -77.762,-15.965 -6.894,-1.082 -16.41,-3.23 -14.816,2.801 5.547,21.543 15.106,49.153 24.871,74.992 z M 1083.46,987.141 878.84,946.477 c -13.481,-4.2 -16.906,-11.633 -21.047,-22.207 -6.426,-16.309 -13.152,-34.258 -19.871,-52.7 -13.02,2.563 -26.567,3.926 -40.567,3.633 -89.613,-1.969 -160.722,-65.113 -159.085,-141.062 1.664,-75.989 75.558,-135.977 165.121,-134.024 89.468,1.934 160.703,65.149 158.98,141.145 -0.144,6.621 -1.031,13.062 -2.234,19.414 5.578,0.965 11.289,1.961 17.343,3.023 14.422,2.617 37.53,7.856 43.07,17.297 l 100.24,163.367 c 6.89,11.953 -23.59,45.16 -37.33,42.778 z m 269.58,-182.903 c -11.09,-34.422 -46.98,-56.672 -91.42,-56.672 -13.89,0 -27.87,2.219 -41.55,6.586 -28.36,9.121 -52.18,26.446 -67.1,48.789 -14.84,22.247 -19.06,46.836 -11.88,69.239 11.09,34.375 46.96,56.597 91.38,56.597 13.88,0 27.85,-2.234 41.51,-6.597 28.36,-9.075 52.2,-26.379 67.13,-48.735 14.87,-22.215 19.09,-46.812 11.93,-69.207 z m -73.85,138.059 c -16.59,5.312 -33.61,7.996 -50.52,7.996 -56.65,0 -102.61,-29.246 -117.03,-74.539 -9.36,-29.16 -4.31,-60.996 14.24,-89.629 18.49,-28.516 48.15,-50.48 83.56,-61.809 16.64,-5.332 33.66,-8.039 50.61,-8.039 56.58,0 102.48,29.231 116.95,74.457 19.16,60.059 -24.71,128.055 -97.81,151.563 z m -238.88,75.133 c 17.49,-0.41 41.48,0.49 69.8,3.3 8.44,0.83 9.8,13.59 -2.27,15.43 -21.47,3.28 -54.14,6.74 -72.91,7.15 -18.81,0.38 -14.63,-25.33 5.38,-25.88 z M 809.629,948.273 c 16.926,3.653 47.684,9.571 74.266,15.055 14.457,3.012 5.734,26.02 -6.383,25.824 -19.875,-0.234 -66.809,-3.488 -82.629,-6.957 -23.488,-5.152 -4.5,-38.101 14.746,-33.922"
         style="fill:#ffffff;fill-opacity:1;fill-rule:nonzero;stroke:none"
         id="path30" />
    </g>
  </g>
</svg>
