<?xml version="1.0" standalone="no"?>
<!DOCTYPE svg PUBLIC "-//W3C//DTD SVG 1.1//EN" "http://www.w3.org/Graphics/SVG/1.1/DTD/svg11.dtd">
<svg width="58" height="58" version="1.1" xmlns="http://www.w3.org/2000/svg">
 <desc>Zint Generated Symbol</desc>
 <g id="barcode" fill="#000000">
  <rect x="0" y="0" width="58" height="58" fill="#FFFFFF"/>
  <path d="M0 0h14v2h-14ZM18 0h6v2h-6ZM26 0h4v2h-4ZM34 0h4v2h-4ZM44 0h14v2h-14ZM0 2h2v10h-2ZM12 2h2v10h-2ZM22 2h6v2h-6ZM30 2h4v2h-4ZM36 2h2v2h-2ZM44 2h2v10h-2ZM56 2h2v10h-2ZM4 4h6v6h-6ZM18 4h6v2h-6ZM26 4h2v4h-2ZM38 4h4v4h-4ZM48 4h6v6h-6ZM16 6h2v4h-2ZM20 6h4v2h-4ZM30 6h2v4h-2ZM34 6h2v2h-2ZM20 8h2v2h-2ZM24 8h4v2h-4ZM38 8h2v2h-2ZM18 10h4v2h-4ZM26 10h4v2h-4ZM40 10h2v6h-2ZM0 12h14v2h-14ZM16 12h2v2h-2ZM20 12h2v2h-2ZM24 12h2v2h-2ZM28 12h2v2h-2ZM32 12h2v2h-2ZM36 12h2v4h-2ZM44 12h14v2h-14ZM18 14h2v2h-2ZM24 14h6v2h-6ZM0 16h4v2h-4ZM10 16h6v2h-6ZM18 16h4v2h-4ZM24 16h4v2h-4ZM30 16h8v2h-8ZM48 16h4v2h-4ZM0 18h2v2h-2ZM4 18h2v2h-2ZM16 18h2v2h-2ZM20 18h2v2h-2ZM32 18h8v2h-8ZM42 18h2v4h-2ZM46 18h4v2h-4ZM52 18h4v2h-4ZM0 20h4v2h-4ZM6 20h2v2h-2ZM10 20h4v2h-4ZM16 20h4v2h-4ZM22 20h4v2h-4ZM28 20h2v2h-2ZM32 20h4v2h-4ZM2 22h6v2h-6ZM10 22h2v2h-2ZM16 22h2v2h-2ZM20 22h4v2h-4ZM26 22h8v2h-8ZM40 22h2v2h-2ZM44 22h4v4h-4ZM50 22h2v2h-2ZM0 24h6v2h-6ZM10 24h6v2h-6ZM18 24h4v4h-4ZM24 24h6v2h-6ZM36 24h4v2h-4ZM56 24h2v2h-2ZM2 26h2v2h-2ZM8 26h2v2h-2ZM14 26h2v2h-2ZM24 26h2v4h-2ZM28 26h2v2h-2ZM36 26h6v2h-6ZM44 26h2v2h-2ZM48 26h2v2h-2ZM54 26h4v2h-4ZM4 28h2v2h-2ZM12 28h6v2h-6ZM34 28h4v2h-4ZM42 28h2v2h-2ZM46 28h2v2h-2ZM50 28h4v2h-4ZM4 30h4v2h-4ZM14 30h2v2h-2ZM18 30h2v2h-2ZM32 30h2v2h-2ZM38 30h12v2h-12ZM52 30h2v2h-2ZM56 30h2v2h-2ZM0 32h2v4h-2ZM4 32h6v2h-6ZM12 32h2v2h-2ZM18 32h14v2h-14ZM34 32h2v2h-2ZM40 32h2v2h-2ZM46 32h2v2h-2ZM50 32h4v2h-4ZM10 34h2v2h-2ZM24 34h2v2h-2ZM30 34h2v2h-2ZM38 34h4v2h-4ZM44 34h6v2h-6ZM52 34h6v2h-6ZM0 36h4v2h-4ZM8 36h6v2h-6ZM20 36h14v2h-14ZM38 36h2v2h-2ZM44 36h2v2h-2ZM50 36h2v2h-2ZM56 36h2v2h-2ZM0 38h2v4h-2ZM6 38h2v2h-2ZM10 38h2v2h-2ZM16 38h4v2h-4ZM24 38h4v2h-4ZM46 38h4v2h-4ZM4 40h2v2h-2ZM10 40h4v2h-4ZM16 40h2v2h-2ZM26 40h2v2h-2ZM30 40h6v2h-6ZM40 40h10v2h-10ZM52 40h6v2h-6ZM16 42h4v2h-4ZM22 42h4v2h-4ZM30 42h2v2h-2ZM34 42h4v2h-4ZM40 42h2v2h-2ZM48 42h4v2h-4ZM0 44h14v2h-14ZM16 44h6v2h-6ZM24 44h2v4h-2ZM30 44h4v4h-4ZM36 44h6v2h-6ZM44 44h2v2h-2ZM48 44h6v2h-6ZM0 46h2v10h-2ZM12 46h2v10h-2ZM16 46h4v2h-4ZM38 46h4v2h-4ZM48 46h2v2h-2ZM4 48h6v6h-6ZM18 48h12v2h-12ZM32 48h2v2h-2ZM38 48h14v2h-14ZM54 48h4v2h-4ZM22 50h6v2h-6ZM30 50h2v2h-2ZM36 50h8v2h-8ZM46 50h2v2h-2ZM50 50h4v2h-4ZM56 50h2v2h-2ZM18 52h4v2h-4ZM28 52h4v2h-4ZM40 52h16v2h-16ZM16 54h4v2h-4ZM22 54h10v2h-10ZM42 54h2v4h-2ZM46 54h2v2h-2ZM50 54h4v2h-4ZM56 54h2v2h-2ZM0 56h14v2h-14ZM16 56h8v2h-8ZM26 56h4v2h-4ZM34 56h2v2h-2ZM38 56h2v2h-2ZM46 56h8v2h-8Z"/>
 </g>
</svg>
